<svg xmlns="http://www.w3.org/2000/svg" width="100%" height="100%" viewBox="0 0 163 40" fill="none">
  <path d="M9.7536 26.4225V0H0V0.084814L3.30891 2.40616C3.73762 2.70591 3.77829 2.83604 3.77829 3.35073V26.8535C3.77829 27.367 3.73762 27.4983 3.30891 27.7981L0.00116183 30.1182V30.2042H14.9946V30.1182L10.2265 27.6261C9.7536 27.3252 9.7536 27.1114 9.7536 26.4225Z" fill="currentColor" />
  <path d="M162.078 9.92207V9.15061H156.363V2.06342H156.276L148.243 9.92439H150.95V25.22C150.95 28.7868 152.71 30.547 155.976 30.547C159.672 30.547 161.348 28.185 161.776 25.737L161.691 25.6928C161.217 26.8093 160.101 27.7981 158.728 27.7981C157.222 27.7981 156.363 26.6815 156.363 24.7482V9.92207H162.078Z" fill="currentColor" />
  <path d="M116.488 6.31574C118.164 6.31574 119.497 5.11207 119.497 3.48086C119.497 1.71835 118.164 0.515855 116.488 0.515855C114.856 0.515855 113.524 1.71835 113.524 3.4797C113.524 5.11207 114.856 6.31574 116.487 6.31574H116.488Z" fill="currentColor" />
  <path d="M119.411 27.3252V9.15061H111.032V9.23659L113.567 11.386C113.953 11.6881 113.997 11.8159 113.997 12.3747V27.3275C113.997 27.7981 113.953 27.97 113.567 28.2721L111.032 30.1194V30.2054H122.418V30.1194L119.885 28.2721C119.452 27.9282 119.411 27.7981 119.411 27.3252Z" fill="currentColor" />
  <path d="M35.1048 27.3252V9.15061H26.7257V9.23659L29.2631 11.386C29.6489 11.6881 29.6919 11.8159 29.6919 12.3747V27.3275C29.6919 27.7981 29.6489 27.97 29.2631 28.2721L26.7257 30.1194V30.2054H38.1117V30.1194L35.5789 28.2721C35.149 27.9282 35.1048 27.7981 35.1048 27.3252Z" fill="currentColor" />
  <path d="M32.1834 6.31574C33.8597 6.31545 35.192 5.11188 35.192 3.48086C35.192 1.71835 33.8594 0.515855 32.1828 0.515855C30.5516 0.515855 29.2178 1.71835 29.2178 3.4797C29.2178 5.11188 30.5513 6.31545 32.1834 6.31574Z" fill="currentColor" />
  <path d="M72.0151 36.8654V9.1498H63.6359V9.23694L66.1722 11.3852C66.5568 11.6884 66.6021 11.815 66.6021 12.3739V37.1245C66.6021 37.5962 66.5568 37.767 66.1722 38.0679L63.6359 39.9152V40H76.2255V39.9152L72.6587 37.8529C72.101 37.552 72.0151 37.4231 72.0151 36.8654Z" fill="currentColor" />
  <path d="M60.5838 27.3255C60.6268 23.8865 60.6697 19.9363 60.6697 17.5743C60.6697 11.6443 58.4367 8.80822 54.3958 8.80822C52.4625 8.80822 50.9103 9.44142 49.7369 10.6393C54.2889 10.6393 55.2568 14.1364 55.2568 18.7756C55.2568 20.0362 55.1989 23.2271 55.1603 25.3531L55.1603 25.3559C55.1411 26.4165 55.1266 27.2115 55.1266 27.3685C55.1266 27.7554 55.0418 27.9692 54.6119 28.2713L52.2046 30.1174V30.2046H63.5929V30.1174L61.0566 28.2713C60.67 27.9694 60.5839 27.8404 60.5838 27.3255Z" fill="currentColor" />
  <path d="M47.8222 27.3255V9.15096H39.4442V9.23694L41.9816 11.3852C42.3662 11.6884 42.4103 11.815 42.4103 12.3739V27.3279C42.4103 27.7972 42.3662 27.9704 41.9805 28.2724L39.4442 30.1186V30.2057H50.8302V30.1186L48.2962 28.2724C47.8663 27.9285 47.8222 27.7972 47.8222 27.3255Z" fill="currentColor" />
  <path d="M13.835 0.000348551H11.667C15.7242 0.000348551 18.4754 3.56602 18.4754 9.23694C18.4754 15.2959 15.35 18.6885 11.667 18.6885H13.0182C19.722 18.6885 24.8341 15.4667 24.8341 9.15096C24.8341 2.49365 19.8092 0.000348551 13.835 0.000348551Z" fill="currentColor" />
  <path d="M103.253 19.6778C103.253 12.8106 102.015 9.44938 99.9999 8.88326C105.677 9.26723 109.398 12.9827 109.398 19.6778C109.398 26.3723 105.691 30.0913 99.9995 30.4735C102.022 29.9112 103.253 26.5558 103.253 19.6778Z" fill="currentColor" />
  <path d="M99.9999 8.88326C99.9997 8.88323 100 8.8833 99.9999 8.88326V8.88326Z" fill="currentColor" />
  <path d="M94.8316 19.6766H94.8328C94.8328 26.5535 96.0609 29.91 98.0859 30.4724C92.393 30.0925 88.689 26.3734 88.689 19.6766C88.689 12.981 92.4092 9.2654 98.0859 8.88316C96.0667 9.45013 94.8316 12.8102 94.8316 19.6766Z" fill="currentColor" />
  <path d="M144.976 17.5737C144.976 19.9357 144.933 23.8871 144.889 27.3261C144.889 27.841 144.977 27.9688 145.363 28.2707L147.898 30.118V30.204H136.511V30.118L138.919 28.2707C139.349 27.9686 139.432 27.756 139.432 27.3691C139.432 27.2115 139.447 26.4138 139.466 25.3503C139.505 23.2239 139.563 20.0351 139.563 18.775C139.563 14.1358 138.594 10.6387 134.042 10.6387C135.217 9.44084 136.768 8.80764 138.703 8.80764C142.742 8.80764 144.976 11.6437 144.976 17.5737Z" fill="currentColor" />
  <path d="M132.128 9.15038V27.3238C132.128 27.7955 132.172 27.9256 132.603 28.2695L135.137 30.1169V30.2028H123.75V30.1169L126.288 28.2695C126.673 27.9675 126.716 27.7955 126.716 27.325V12.3721C126.716 11.8133 126.673 11.6855 126.288 11.3834L123.75 9.23636V9.15038H132.128Z" fill="currentColor" />
  <path d="M73.9291 10.7293C75.1815 9.40715 76.7233 8.80764 78.5892 8.80764C83.3144 8.80764 86.2782 12.9322 86.2782 19.1201C86.2782 26.1236 82.7137 30.5479 77.6864 30.5479C76.0889 30.5479 74.8632 30.1761 73.9279 29.5487C78.3255 29.5487 80.4807 25.6066 80.4807 19.4198C80.4807 14.3926 78.767 10.7293 73.9291 10.7293Z" fill="currentColor" />
</svg>